<svg width="80" height="80" viewBox="0 0 80 80" fill="none" xmlns="http://www.w3.org/2000/svg">
<rect width="80" height="80" fill="#EEEEEE"/>
<path d="M23.363 22.639L30.83 22.753H37.385C42.249 22.753 45.897 23.703 48.329 25.603C50.761 27.465 51.977 29.764 51.977 32.5C51.977 34.514 51.198 36.319 49.64 37.915C48.082 39.473 46.125 40.48 43.769 40.936V41.164C47.189 41.772 49.887 42.988 51.863 44.812C53.839 46.636 54.827 48.707 54.827 51.025C54.827 53.799 53.364 56.155 50.438 58.093C47.512 60.031 43.56 61 38.582 61H33.053L23.363 61.114C23.059 61.114 22.907 60.791 22.907 60.145C22.907 59.499 23.059 59.176 23.363 59.176H25.814C26.764 59.176 27.391 59.005 27.695 58.663C27.999 58.283 28.151 57.58 28.151 56.554V29.593C28.151 26.249 27.752 24.577 26.954 24.577H23.363C23.059 24.577 22.907 24.254 22.907 23.608C22.907 22.962 23.059 22.639 23.363 22.639ZM34.022 53.704C34.022 57.048 34.44 58.72 35.276 58.72H38.183C41.337 58.72 43.75 58.017 45.422 56.611C47.094 55.205 47.93 53.343 47.93 51.025C47.93 48.517 47.056 46.522 45.308 45.04C43.332 43.33 39.57 42.361 34.022 42.133V53.704ZM34.022 27.655V39.853C34.934 40.005 35.941 40.081 37.043 40.081C39.817 40.081 41.964 39.397 43.484 38.029C45.042 36.623 45.821 34.875 45.821 32.785C45.821 30.695 44.985 28.89 43.313 27.37C41.641 25.812 39.095 25.033 35.675 25.033C34.573 25.033 34.022 25.907 34.022 27.655Z" fill="black"/>
</svg>
