<svg width="133" height="32" viewBox="0 0 133 32" fill="none" xmlns="http://www.w3.org/2000/svg">
<path d="M15 2H17V7H15V2ZM21.688 8.9L25.194 5.394L26.608 6.808L23.102 10.314L21.688 8.9ZM25 15H30V17H25V15ZM21.688 23.1L23.102 21.687L26.608 25.193L25.194 26.607L21.688 23.1ZM15 25H17V30H15V25ZM5.394 25.192L8.9 21.686L10.314 23.1L6.809 26.606L5.394 25.192ZM2 15H7V17H2V15ZM5.395 6.808L6.809 5.394L10.315 8.9L8.9 10.314L5.395 6.808ZM16 10C14.8133 10 13.6533 10.3519 12.6666 11.0112C11.6799 11.6705 10.9108 12.6075 10.4567 13.7039C10.0026 14.8003 9.88378 16.0067 10.1153 17.1705C10.3468 18.3344 10.9182 19.4035 11.7574 20.2426C12.5965 21.0818 13.6656 21.6532 14.8295 21.8847C15.9933 22.1162 17.1997 21.9974 18.2961 21.5433C19.3925 21.0892 20.3295 20.3201 20.9888 19.3334C21.6481 18.3467 22 17.1867 22 16C22 14.4087 21.3679 12.8826 20.2426 11.7574C19.1174 10.6321 17.5913 10 16 10Z"  fill="#B3261E"/>
<path d="M41.4932 8.35938H47.1758C48.3646 8.35938 49.3851 8.53841 50.2373 8.89648C51.0895 9.25456 51.7448 9.78451 52.2031 10.4863C52.6615 11.1882 52.8906 12.0511 52.8906 13.0752C52.8906 13.8844 52.7474 14.5863 52.4609 15.1807C52.1745 15.7751 51.7699 16.2728 51.2471 16.6738C50.7314 17.0749 50.1227 17.39 49.4209 17.6191L48.4971 18.0918H43.4805L43.459 15.7607H47.208C47.8167 15.7607 48.3216 15.6533 48.7227 15.4385C49.1237 15.2236 49.4245 14.9264 49.625 14.5469C49.8327 14.1673 49.9365 13.734 49.9365 13.2471C49.9365 12.7243 49.8363 12.2731 49.6357 11.8936C49.4352 11.5068 49.1309 11.2096 48.7227 11.002C48.3145 10.7943 47.7988 10.6904 47.1758 10.6904H44.4473V24H41.4932V8.35938ZM50.3232 24L46.7031 16.9961L49.8291 16.9854L53.4922 23.8496V24H50.3232ZM60.4854 24.2148C59.6045 24.2148 58.8132 24.0716 58.1113 23.7852C57.4095 23.4987 56.8115 23.1012 56.3174 22.5928C55.8304 22.0771 55.4544 21.4792 55.1895 20.7988C54.9316 20.1113 54.8027 19.3737 54.8027 18.5859V18.1562C54.8027 17.2611 54.9316 16.4482 55.1895 15.7178C55.4473 14.9801 55.8125 14.3464 56.2852 13.8164C56.7578 13.2865 57.3236 12.8783 57.9824 12.5918C58.6413 12.3053 59.3682 12.1621 60.1631 12.1621C60.9867 12.1621 61.7135 12.3018 62.3438 12.5811C62.974 12.8532 63.5003 13.2399 63.9229 13.7412C64.3454 14.2425 64.6641 14.8441 64.8789 15.5459C65.0938 16.2406 65.2012 17.0104 65.2012 17.8555V19.0479H56.0918V17.0928H62.4082V16.8779C62.3939 16.4268 62.3079 16.015 62.1504 15.6426C61.9928 15.263 61.7493 14.9622 61.4199 14.7402C61.0905 14.5111 60.6644 14.3965 60.1416 14.3965C59.7191 14.3965 59.3503 14.4896 59.0352 14.6758C58.7272 14.8548 58.4694 15.1126 58.2617 15.4492C58.0612 15.7786 57.9108 16.1725 57.8105 16.6309C57.7103 17.0892 57.6602 17.5977 57.6602 18.1562V18.5859C57.6602 19.0729 57.7246 19.5241 57.8535 19.9395C57.9896 20.3548 58.1865 20.7165 58.4443 21.0244C58.7093 21.3252 59.0244 21.5615 59.3896 21.7334C59.762 21.8981 60.1846 21.9805 60.6572 21.9805C61.2516 21.9805 61.7887 21.8659 62.2686 21.6367C62.7555 21.4004 63.1781 21.0531 63.5361 20.5947L64.9648 22.0771C64.7214 22.4352 64.3919 22.779 63.9766 23.1084C63.5684 23.4378 63.0742 23.7064 62.4941 23.9141C61.9141 24.1146 61.2445 24.2148 60.4854 24.2148ZM73.5049 21.5293V16.1689C73.5049 15.7751 73.4368 15.4349 73.3008 15.1484C73.1647 14.862 72.957 14.64 72.6777 14.4824C72.3984 14.3249 72.0439 14.2461 71.6143 14.2461C71.2347 14.2461 70.9017 14.3105 70.6152 14.4395C70.3359 14.5684 70.1211 14.751 69.9707 14.9873C69.8203 15.2165 69.7451 15.4814 69.7451 15.7822H66.8984C66.8984 15.3024 67.013 14.8477 67.2422 14.418C67.4714 13.9811 67.7972 13.5944 68.2197 13.2578C68.6494 12.9141 69.1615 12.6455 69.7559 12.4521C70.3574 12.2588 71.0306 12.1621 71.7754 12.1621C72.6562 12.1621 73.4404 12.3125 74.1279 12.6133C74.8226 12.9069 75.3669 13.3509 75.7607 13.9453C76.1618 14.5397 76.3623 15.2881 76.3623 16.1904V21.2607C76.3623 21.8408 76.3981 22.3385 76.4697 22.7539C76.5485 23.1621 76.6631 23.5166 76.8135 23.8174V24H73.9238C73.7878 23.7064 73.6839 23.334 73.6123 22.8828C73.5407 22.4245 73.5049 21.9733 73.5049 21.5293ZM73.9023 16.9209L73.9238 18.6074H72.1299C71.6859 18.6074 71.2956 18.654 70.959 18.7471C70.6224 18.833 70.3467 18.9619 70.1318 19.1338C69.917 19.2985 69.7559 19.499 69.6484 19.7354C69.541 19.9645 69.4873 20.2259 69.4873 20.5195C69.4873 20.806 69.5518 21.0638 69.6807 21.293C69.8167 21.5221 70.0101 21.7048 70.2607 21.8408C70.5186 21.9697 70.8193 22.0342 71.1631 22.0342C71.6644 22.0342 72.1012 21.9339 72.4736 21.7334C72.846 21.5257 73.1361 21.2751 73.3438 20.9814C73.5514 20.6878 73.6624 20.4085 73.6768 20.1436L74.4932 21.3682C74.3929 21.6618 74.2425 21.9733 74.042 22.3027C73.8415 22.6322 73.5837 22.9401 73.2686 23.2266C72.9535 23.513 72.5739 23.7493 72.1299 23.9355C71.6859 24.1217 71.1702 24.2148 70.583 24.2148C69.8311 24.2148 69.1579 24.0645 68.5635 23.7637C67.9691 23.4629 67.5 23.0511 67.1562 22.5283C66.8125 22.0055 66.6406 21.4111 66.6406 20.7451C66.6406 20.1292 66.7552 19.585 66.9844 19.1123C67.2135 18.6396 67.5537 18.2422 68.0049 17.9199C68.4561 17.5905 69.0146 17.3434 69.6807 17.1787C70.3538 17.0068 71.1237 16.9209 71.9902 16.9209H73.9023ZM85.8906 21.5293V7.5H88.748V24H86.1699L85.8906 21.5293ZM78.4248 18.3281V18.1025C78.4248 17.2145 78.5251 16.4089 78.7256 15.6855C78.9333 14.9551 79.234 14.3285 79.6279 13.8057C80.0218 13.2829 80.498 12.8783 81.0566 12.5918C81.6224 12.3053 82.2633 12.1621 82.9795 12.1621C83.6742 12.1621 84.2793 12.3018 84.7949 12.5811C85.3177 12.8604 85.7617 13.2578 86.127 13.7734C86.4993 14.2891 86.7965 14.9014 87.0186 15.6104C87.2406 16.3122 87.4017 17.0856 87.502 17.9307V18.543C87.4017 19.3665 87.2406 20.1221 87.0186 20.8096C86.7965 21.4971 86.4993 22.0986 86.127 22.6143C85.7617 23.1227 85.3177 23.5166 84.7949 23.7959C84.2721 24.0752 83.6598 24.2148 82.958 24.2148C82.249 24.2148 81.6117 24.068 81.0459 23.7744C80.4873 23.4808 80.0111 23.069 79.6172 22.5391C79.2305 22.0091 78.9333 21.3861 78.7256 20.6699C78.5251 19.9538 78.4248 19.1732 78.4248 18.3281ZM81.2715 18.1025V18.3281C81.2715 18.8294 81.3145 19.2985 81.4004 19.7354C81.4863 20.1722 81.626 20.5589 81.8193 20.8955C82.0127 21.2249 82.2598 21.4827 82.5605 21.6689C82.8685 21.8551 83.2409 21.9482 83.6777 21.9482C84.2363 21.9482 84.6947 21.8265 85.0527 21.583C85.418 21.3324 85.7008 20.9922 85.9014 20.5625C86.1019 20.1257 86.2308 19.6351 86.2881 19.0908V17.4043C86.2594 16.9746 86.1842 16.5771 86.0625 16.2119C85.9479 15.8467 85.7832 15.5316 85.5684 15.2666C85.3607 15.0016 85.1029 14.7939 84.7949 14.6436C84.487 14.4932 84.1217 14.418 83.6992 14.418C83.2624 14.418 82.89 14.5146 82.582 14.708C82.2741 14.8942 82.0234 15.1556 81.8301 15.4922C81.6367 15.8288 81.4935 16.2191 81.4004 16.6631C81.3145 17.1071 81.2715 17.5869 81.2715 18.1025Z" fill="#B3261E"/>
<path d="M93.7109 7.5V24H91.7129V7.5H93.7109ZM99.0605 12.377V24H97.0625V12.377H99.0605ZM96.9121 9.29395C96.9121 8.97168 97.0088 8.69954 97.2021 8.47754C97.4027 8.25553 97.6963 8.14453 98.083 8.14453C98.4626 8.14453 98.7526 8.25553 98.9531 8.47754C99.1608 8.69954 99.2646 8.97168 99.2646 9.29395C99.2646 9.60189 99.1608 9.86686 98.9531 10.0889C98.7526 10.3037 98.4626 10.4111 98.083 10.4111C97.6963 10.4111 97.4027 10.3037 97.2021 10.0889C97.0088 9.86686 96.9121 9.60189 96.9121 9.29395ZM109.781 12.377H111.586V23.7529C111.586 24.777 111.378 25.6507 110.963 26.374C110.548 27.0973 109.967 27.6452 109.223 28.0176C108.485 28.3971 107.633 28.5869 106.666 28.5869C106.265 28.5869 105.792 28.5225 105.248 28.3936C104.711 28.2718 104.181 28.0605 103.658 27.7598C103.143 27.4661 102.709 27.0687 102.358 26.5674L103.4 25.3857C103.887 25.973 104.396 26.3812 104.926 26.6104C105.463 26.8395 105.993 26.9541 106.516 26.9541C107.146 26.9541 107.69 26.8359 108.148 26.5996C108.607 26.3633 108.961 26.0124 109.212 25.5469C109.47 25.0885 109.599 24.5228 109.599 23.8496V14.9336L109.781 12.377ZM101.778 18.3174V18.0918C101.778 17.2038 101.882 16.3981 102.09 15.6748C102.305 14.9443 102.609 14.3177 103.003 13.7949C103.404 13.2721 103.887 12.8711 104.453 12.5918C105.019 12.3053 105.656 12.1621 106.365 12.1621C107.096 12.1621 107.733 12.291 108.277 12.5488C108.829 12.7995 109.294 13.1683 109.674 13.6553C110.061 14.1351 110.365 14.7152 110.587 15.3955C110.809 16.0758 110.963 16.8457 111.049 17.7051V18.6934C110.97 19.5456 110.816 20.3118 110.587 20.9922C110.365 21.6725 110.061 22.2526 109.674 22.7324C109.294 23.2122 108.829 23.5811 108.277 23.8389C107.726 24.0895 107.081 24.2148 106.344 24.2148C105.649 24.2148 105.019 24.068 104.453 23.7744C103.895 23.4808 103.415 23.069 103.014 22.5391C102.613 22.0091 102.305 21.3861 102.09 20.6699C101.882 19.9466 101.778 19.1624 101.778 18.3174ZM103.766 18.0918V18.3174C103.766 18.8975 103.823 19.4417 103.938 19.9502C104.059 20.4587 104.242 20.9062 104.485 21.293C104.736 21.6797 105.055 21.984 105.441 22.2061C105.828 22.4209 106.29 22.5283 106.827 22.5283C107.486 22.5283 108.03 22.3887 108.46 22.1094C108.89 21.8301 109.23 21.4613 109.48 21.0029C109.738 20.5446 109.939 20.0469 110.082 19.5098V16.9209C110.003 16.527 109.882 16.1475 109.717 15.7822C109.559 15.4098 109.352 15.0804 109.094 14.7939C108.843 14.5003 108.532 14.2676 108.159 14.0957C107.787 13.9238 107.35 13.8379 106.849 13.8379C106.304 13.8379 105.835 13.9525 105.441 14.1816C105.055 14.4036 104.736 14.7116 104.485 15.1055C104.242 15.4922 104.059 15.9434 103.938 16.459C103.823 16.9674 103.766 17.5117 103.766 18.0918ZM116.592 7.5V24H114.604V7.5H116.592ZM116.119 17.748L115.292 17.7158C115.299 16.9209 115.417 16.1868 115.646 15.5137C115.876 14.8333 116.198 14.2425 116.613 13.7412C117.029 13.2399 117.523 12.8532 118.096 12.5811C118.676 12.3018 119.317 12.1621 120.019 12.1621C120.591 12.1621 121.107 12.2409 121.565 12.3984C122.024 12.5488 122.414 12.7923 122.736 13.1289C123.066 13.4655 123.316 13.9023 123.488 14.4395C123.66 14.9694 123.746 15.6175 123.746 16.3838V24H121.748V16.3623C121.748 15.7536 121.659 15.2666 121.479 14.9014C121.3 14.529 121.039 14.2604 120.695 14.0957C120.352 13.9238 119.929 13.8379 119.428 13.8379C118.934 13.8379 118.482 13.9417 118.074 14.1494C117.673 14.3571 117.326 14.6436 117.032 15.0088C116.746 15.374 116.52 15.793 116.355 16.2656C116.198 16.7311 116.119 17.2253 116.119 17.748ZM131.588 12.377V13.9023H125.304V12.377H131.588ZM127.431 9.55176H129.418V21.1211C129.418 21.515 129.479 21.8122 129.601 22.0127C129.722 22.2132 129.88 22.3457 130.073 22.4102C130.267 22.4746 130.474 22.5068 130.696 22.5068C130.861 22.5068 131.033 22.4925 131.212 22.4639C131.398 22.4281 131.538 22.3994 131.631 22.3779L131.642 24C131.484 24.0501 131.276 24.0967 131.019 24.1396C130.768 24.1898 130.464 24.2148 130.105 24.2148C129.618 24.2148 129.171 24.1182 128.763 23.9248C128.354 23.7314 128.029 23.4092 127.785 22.958C127.549 22.4997 127.431 21.8838 127.431 21.1104V9.55176Z" fill="#CFD8DC"/>
</svg>
