<svg width="433" height="337" viewBox="0 0 433 337" fill="none" xmlns="http://www.w3.org/2000/svg">
<g clip-path="url(#clip0_464_906)">
<path d="M415.961 294.752H0V299.199H415.961V294.752Z" fill="#313033"/>
<path d="M380.082 298.843C379.833 298.449 373.971 288.959 371.939 269.253C370.075 251.173 371.274 220.699 387.573 178.191C418.453 97.6603 380.457 32.6841 380.069 32.0369L381.943 30.9824C382.042 31.1465 391.846 47.7129 397.638 74.0924C405.291 109.066 402.504 145.43 389.605 178.923C358.778 259.316 381.696 297.373 381.931 297.748L380.082 298.843Z" fill="#313033"/>
<path d="M368.004 27.3087C375.782 27.3087 382.087 21.1955 382.087 13.6544C382.087 6.11327 375.782 0 368.004 0C360.227 0 353.922 6.11327 353.922 13.6544C353.922 21.1955 360.227 27.3087 368.004 27.3087Z" fill="#313033"/>
<path d="M412.418 77.7248C420.196 77.7248 426.501 71.6115 426.501 64.0704C426.501 56.5293 420.196 50.416 412.418 50.416C404.641 50.416 398.336 56.5293 398.336 64.0704C398.336 71.6115 404.641 77.7248 412.418 77.7248Z" fill="#313033"/>
<path d="M382.09 111.336C389.868 111.336 396.173 105.223 396.173 97.6817C396.173 90.1406 389.868 84.0273 382.09 84.0273C374.313 84.0273 368.008 90.1406 368.008 97.6817C368.008 105.223 374.313 111.336 382.09 111.336Z" fill="#B3261E"/>
<path d="M418.918 139.695C426.696 139.695 433.001 133.582 433.001 126.041C433.001 118.5 426.696 112.387 418.918 112.387C411.141 112.387 404.836 118.5 404.836 126.041C404.836 133.582 411.141 139.695 418.918 139.695Z" fill="#B3261E"/>
<path d="M371.254 183.809C379.032 183.809 385.337 177.695 385.337 170.154C385.337 162.613 379.032 156.5 371.254 156.5C363.477 156.5 357.172 162.613 357.172 170.154C357.172 177.695 363.477 183.809 371.254 183.809Z" fill="#313033"/>
<path d="M388.589 299.346C388.589 299.346 374.507 265.735 416.754 240.527L388.589 299.346Z" fill="#313033"/>
<path d="M371.264 298.737C371.264 298.737 364.855 262.994 315.25 263.301L371.264 298.737Z" fill="#313033"/>
</g>
<defs>
<clipPath id="clip0_464_906">
<rect width="433" height="337" fill="white"/>
</clipPath>
</defs>
</svg>
