<svg width="459" height="337" viewBox="0 0 459 337" fill="none" xmlns="http://www.w3.org/2000/svg">
<g clip-path="url(#clip0_464_906)">
<path d="M18.0619 294.752H459V299.199H18.0619V294.752Z" fill="#313033"/>
<path d="M56.1009 298.843C56.3645 298.449 62.5781 288.959 64.7323 269.253C66.7081 251.173 65.4376 220.699 48.1592 178.191C15.4258 97.6603 55.7028 32.6841 56.1143 32.0369L54.1273 30.9824C54.023 31.1465 43.6299 47.7129 37.4903 74.0924C29.3779 109.066 32.332 145.43 46.0061 178.923C78.6835 259.316 54.3897 297.373 54.1407 297.748L56.1009 298.843Z" fill="#313033"/>
<path d="M68.9002 27.3087C60.6557 27.3087 53.9722 21.1955 53.9722 13.6544C53.9722 6.11327 60.6557 0 68.9002 0C77.1446 0 83.8281 6.11327 83.8281 13.6544C83.8281 21.1955 77.1446 27.3087 68.9002 27.3087Z" fill="#313033"/>
<path d="M21.8142 77.7248C13.5698 77.7248 6.88627 71.6115 6.88627 64.0704C6.88627 56.5293 13.5698 50.416 21.8142 50.416C30.0587 50.416 36.7422 56.5293 36.7422 64.0704C36.7422 71.6115 30.0587 77.7248 21.8142 77.7248Z" fill="#313033"/>
<path d="M53.9705 111.336C45.726 111.336 39.0425 105.223 39.0425 97.6817C39.0425 90.1406 45.726 84.0273 53.9705 84.0273C62.215 84.0273 68.8984 90.1406 68.8984 97.6817C68.8984 105.223 62.215 111.336 53.9705 111.336Z" fill="#B3261E"/>
<path d="M14.9314 139.695C6.68695 139.695 0.00346184 133.582 0.00346184 126.041C0.00346184 118.5 6.68695 112.387 14.9314 112.387C23.1759 112.387 29.8594 118.5 29.8594 126.041C29.8594 133.582 23.1759 139.695 14.9314 139.695Z" fill="#B3261E"/>
<path d="M65.4549 183.809C57.2104 183.809 50.5269 177.695 50.5269 170.154C50.5269 162.613 57.2104 156.5 65.4549 156.5C73.6994 156.5 80.3828 162.613 80.3828 170.154C80.3828 177.695 73.6994 183.809 65.4549 183.809Z" fill="#313033"/>
<path d="M47.0803 299.346C47.0803 299.346 62.0082 265.735 17.2244 240.527L47.0803 299.346Z" fill="#313033"/>
<path d="M65.4432 298.737C65.4432 298.737 72.2371 262.994 124.82 263.301L65.4432 298.737Z" fill="#313033"/>
</g>
<defs>
<clipPath id="clip0_464_906">
<rect width="459" height="337" fill="white" transform="matrix(-1 0 0 1 459 0)"/>
</clipPath>
</defs>
</svg>
