<svg width="50" height="50" viewBox="0 0 50 50" fill="none" xmlns="http://www.w3.org/2000/svg">
<path d="M37.5005 37.5C38.3293 37.5 39.1242 37.1708 39.7103 36.5847C40.2963 35.9987 40.6255 35.2038 40.6255 34.375V26.7437C40.6255 25.9149 40.2963 25.1201 39.7103 24.534C39.1242 23.948 38.3293 23.6188 37.5005 23.6188H33.163C33.163 22.5219 33.2287 21.4219 33.3568 20.325C33.5505 19.1625 33.8755 18.1281 34.3255 17.225C34.7787 16.3188 35.3599 15.6094 36.0724 15.0906C36.7818 14.5094 37.6849 14.2188 38.7849 14.2188V9.375C36.9755 9.375 35.3943 9.7625 34.0349 10.5375C32.6874 11.3046 31.5288 12.3639 30.6443 13.6375C29.7566 15.0416 29.1022 16.5803 28.7068 18.1938C28.3083 19.9743 28.1133 21.7942 28.1255 23.6188V34.375C28.1255 35.2038 28.4548 35.9987 29.0408 36.5847C29.6269 37.1708 30.4217 37.5 31.2505 37.5H37.5005ZM18.7505 37.5C19.5793 37.5 20.3742 37.1708 20.9602 36.5847C21.5463 35.9987 21.8755 35.2038 21.8755 34.375V26.7437C21.8755 25.9149 21.5463 25.1201 20.9602 24.534C20.3742 23.948 19.5793 23.6188 18.7505 23.6188H14.413C14.413 22.5219 14.4787 21.4219 14.6068 20.325C14.8005 19.1625 15.1255 18.1281 15.5755 17.225C16.0287 16.3188 16.6099 15.6094 17.3224 15.0906C18.0318 14.5094 18.9349 14.2188 20.0349 14.2188V9.375C18.2255 9.375 16.6443 9.7625 15.2849 10.5375C13.9374 11.3046 12.7788 12.3639 11.8943 13.6375C11.0066 15.0416 10.3522 16.5803 9.95679 18.1938C9.55831 19.9743 9.36331 21.7942 9.37554 23.6188V34.375C9.37554 35.2038 9.70478 35.9987 10.2908 36.5847C10.8769 37.1708 11.6717 37.5 12.5005 37.5H18.7505Z" fill="#000"/>
</svg>
